<?xml version="1.0" encoding="UTF-8"?> <svg xmlns="http://www.w3.org/2000/svg" width="75" height="75" viewBox="0 0 75 75" fill="none"><g clip-path="url(#clip0)"><path d="M0.0361328 56.1053C0.0361328 60.9073 4.41693 64.9644 9.66659 64.9644H19.3409L15.7559 68.1658L17.3038 69.5574L23.5318 63.9844L17.3038 58.4115L15.7559 59.7966L19.3409 63.0044H9.66659C7.66645 62.9483 5.76976 62.1959 4.38021 60.9073C2.99065 59.6188 2.21794 57.8959 2.22653 56.1053V50.2253C2.23233 48.4624 3.01851 46.7734 4.41296 45.5281C5.8074 44.2827 7.69648 43.5826 9.66659 43.5809H64.2295C66.7824 43.5774 69.2297 42.6684 71.035 41.053C72.8402 39.4377 73.8561 37.2478 73.8599 34.9634V25.1634C73.8599 20.3614 69.4791 16.3042 64.2295 16.3042H47.1297V18.2642H64.2295C66.2296 18.3204 68.1263 19.0728 69.5158 20.3613C70.9054 21.6499 71.6781 23.3728 71.6695 25.1634V34.9634C71.6676 36.7285 70.8831 38.4209 69.4882 39.669C68.0934 40.9172 66.2021 41.6191 64.2295 41.6209H9.66659C7.11303 41.6226 4.66461 42.5311 2.85896 44.1468C1.05332 45.7625 0.0380666 47.9534 0.0361328 50.2383V56.1053Z" fill="#0B9ACE"></path><path d="M0.0361363 30.6776C0.0361344 31.5307 0.41437 32.3489 1.08784 32.9528C1.76131 33.5566 2.675 33.8968 3.62839 33.8985V31.9385C3.25593 31.9368 2.89937 31.8032 2.63668 31.5669C2.37399 31.3306 2.22653 31.0108 2.22654 30.6776V24.7453C2.22557 24.58 2.26112 24.4162 2.33114 24.2632C2.40116 24.1103 2.50427 23.9712 2.63454 23.8541C2.76481 23.7369 2.91967 23.6439 3.09023 23.5805C3.26079 23.517 3.44368 23.4844 3.62839 23.4844V21.5244C3.25593 21.5226 2.89937 21.389 2.63668 21.1527C2.37399 20.9165 2.22653 20.5967 2.22654 20.2634V14.3312C2.22653 13.9979 2.37399 13.6781 2.63668 13.4418C2.89937 13.2056 3.25593 13.072 3.62839 13.0702V11.1102C3.26036 11.1103 2.90707 10.9808 2.64479 10.7498C2.38252 10.5188 2.23229 10.2047 2.22654 9.87543V3.91703C2.23418 3.58889 2.38524 3.2765 2.64731 3.04688C2.90939 2.81725 3.2616 2.68869 3.62839 2.68876H38.2659C38.6384 2.68876 38.9957 2.82071 39.2598 3.05577C39.5238 3.29083 39.6731 3.60987 39.6751 3.94316V9.87543C39.6731 10.2087 39.5238 10.5278 39.2598 10.7628C38.9957 10.9979 38.6384 11.1298 38.2659 11.1298H7.89237V13.0898H38.2659C38.639 13.0915 38.9964 13.2249 39.2602 13.461C39.5241 13.6971 39.6731 14.0169 39.6751 14.3508V20.2634C39.6731 20.5973 39.5241 20.917 39.2602 21.1531C38.9964 21.3892 38.639 21.5226 38.2659 21.5244H7.89237V23.4844H38.2659C38.451 23.4844 38.6342 23.517 38.8052 23.5803C38.9761 23.6437 39.1315 23.7366 39.2623 23.8537C39.3932 23.9708 39.497 24.1098 39.5678 24.2628C39.6386 24.4157 39.6751 24.5797 39.6751 24.7453V30.6776C39.6731 31.0114 39.5241 31.3312 39.2602 31.5673C38.9964 31.8034 38.639 31.9368 38.2659 31.9385H7.16224V33.8985H38.2659C39.22 33.8968 40.1344 33.5569 40.809 32.9532C41.4837 32.3495 41.8635 31.5313 41.8655 30.6776V24.7453C41.8648 23.9075 41.498 23.1032 40.8433 22.5044C41.4966 21.9047 41.8633 21.1009 41.8655 20.2634V14.3312C41.8633 13.4937 41.4966 12.6899 40.8433 12.0902C41.4909 11.4978 41.8572 10.7041 41.8655 9.87543V3.91703C41.854 3.06899 41.4699 2.25909 40.7963 1.66245C40.1227 1.06582 39.2137 0.730414 38.2659 0.72876H3.62839C2.67626 0.730486 1.76367 1.0697 1.09041 1.67214C0.417153 2.27459 0.0380657 3.09118 0.0361363 3.94316V9.87543C0.0359554 10.7101 0.400124 11.5119 1.05102 12.1098C0.39968 12.7101 0.0355988 13.5141 0.0361363 14.3508V20.2634C0.0355988 21.1001 0.39968 21.904 1.05102 22.5044C0.39902 23.1043 0.0348254 23.9085 0.0361363 24.7453V30.6776Z" fill="#0B9ACE"></path><path d="M74.2609 73.9281V71.9681H68.0183V48.5723H59.0668V71.9681H55.0146V55.5499H46.0705V71.9681H42.0182V60.4564H33.2566V71.9681H26.6416V73.9281H35.447V62.4164H39.8278V73.9281H48.2609V57.5099H52.8242V73.9281H61.2572V50.5323H65.8279V73.9281H74.2609Z" fill="#0B9ACE"></path></g><defs><clipPath id="clip0"><rect width="74" height="74" fill="white" transform="translate(0.148438 0.31543)"></rect></clipPath></defs></svg> 