<?xml version="1.0" encoding="UTF-8"?> <svg xmlns="http://www.w3.org/2000/svg" width="74" height="74" viewBox="0 0 74 74" fill="none"><path d="M66.5625 44.376C65.9598 44.376 65.3785 44.4933 64.8452 44.6907L52.0292 22.4827H30.5678L32.9038 18.44H57.9545C58.3385 20.76 60.3545 22.536 62.7812 22.536C65.4798 22.536 67.6772 20.3387 67.6772 17.6347C67.6772 14.9307 65.4798 12.7333 62.7812 12.7333C60.3545 12.7333 58.3385 14.5093 57.9545 16.8347H31.9812L21.2452 35.432L18.9092 31.3893L31.2398 10.0293C31.7412 10.2 32.2745 10.3013 32.8345 10.3013C35.5332 10.3013 37.7305 8.10399 37.7305 5.39999C37.7305 2.69599 35.5332 0.498657 32.8345 0.498657C30.1358 0.498657 27.9385 2.69599 27.9385 5.39999C27.9385 6.97332 28.6852 8.36532 29.8372 9.26666L17.0638 31.3893L25.3625 45.752H40.3065L37.8692 49.9707H23.1225L10.7758 28.5893C11.8692 27.688 12.5678 26.328 12.5678 24.808C12.5678 22.1093 10.3705 19.9067 7.66651 19.9067C4.96251 19.9067 2.77051 22.104 2.77051 24.808C2.77051 27.512 4.96784 29.704 7.66651 29.704C8.27451 29.704 8.85051 29.5867 9.38917 29.384L22.1998 51.5653H38.7918L47.1865 37.032L43.0745 29.9067H47.9492L52.0612 37.0267L41.3252 55.6133H16.8985C16.5145 53.2933 14.4985 51.512 12.0718 51.512C9.37317 51.512 7.17051 53.7093 7.17051 56.4133C7.17051 59.1173 9.36784 61.3147 12.0718 61.3147C14.4985 61.3147 16.5145 59.5387 16.8985 57.2133H42.2532L52.9838 38.6267L55.3198 42.6747L42.9572 64.0827C42.4078 63.8693 41.8158 63.7467 41.1972 63.7467C38.4985 63.7467 36.3012 65.944 36.3012 68.648C36.3012 71.352 38.4985 73.5493 41.1972 73.5493C43.8958 73.5493 46.0985 71.352 46.0985 68.648C46.0985 67.144 45.4158 65.7947 44.3385 64.8933L57.1652 42.6747L48.8665 28.3067H32.0772L27.0372 37.0267L29.4638 41.2347L30.8505 40.4347L28.8825 37.0267L32.9998 29.9067H41.2238L45.3358 37.032L41.2238 44.152H26.2798L22.1678 37.032L29.6398 24.088H51.1012L63.4532 45.4907C62.3598 46.392 61.6612 47.752 61.6612 49.2773C61.6612 51.976 63.8585 54.1787 66.5625 54.1787C69.2665 54.1787 71.4585 51.9813 71.4585 49.2773C71.4585 46.5733 69.2612 44.376 66.5625 44.376ZM62.7812 14.3493C64.5998 14.3493 66.0772 15.8267 66.0772 17.6507C66.0772 19.4747 64.5998 20.952 62.7812 20.952C60.9625 20.952 59.4798 19.4747 59.4798 17.6507C59.4798 15.8267 60.9625 14.3493 62.7812 14.3493ZM32.8345 2.10399C34.6532 2.10399 36.1305 3.58132 36.1305 5.40532C36.1305 7.22932 34.6532 8.70666 32.8345 8.70666C31.0158 8.70666 29.5385 7.22932 29.5385 5.40532C29.5385 3.58132 31.0158 2.10399 32.8345 2.10399ZM4.37051 24.808C4.37051 22.9893 5.84784 21.5067 7.66651 21.5067C9.48517 21.5067 10.9678 22.984 10.9678 24.808C10.9678 26.6267 9.49051 28.104 7.66651 28.104C5.84784 28.1093 4.37051 26.6267 4.37051 24.808ZM12.0718 59.7147C10.2532 59.7147 8.77051 58.2373 8.77051 56.4133C8.77051 54.5893 10.2478 53.112 12.0718 53.112C13.8905 53.112 15.3678 54.5893 15.3678 56.4133C15.3678 58.2373 13.8905 59.7147 12.0718 59.7147ZM41.1972 71.9493C39.3785 71.9493 37.9012 70.472 37.9012 68.648C37.9012 66.824 39.3785 65.3466 41.1972 65.3466C43.0158 65.3466 44.4985 66.824 44.4985 68.648C44.4985 70.472 43.0158 71.9493 41.1972 71.9493ZM66.5625 52.5733C64.7438 52.5733 63.2612 51.096 63.2612 49.272C63.2612 47.448 64.7385 45.9707 66.5625 45.9707C68.3812 45.9707 69.8585 47.448 69.8585 49.272C69.8585 51.096 68.3812 52.5733 66.5625 52.5733Z" fill="#0B9ACE"></path></svg> 