<?xml version="1.0" encoding="UTF-8"?> <svg xmlns="http://www.w3.org/2000/svg" width="96" height="96" viewBox="0 0 96 96" fill="none"><path d="M84.256 54.7905C84.352 53.7409 84.4032 52.6593 84.4032 51.5905C84.4049 47.9837 83.8699 44.3967 82.816 40.9473L80.9792 41.5105C81.9805 44.7766 82.4875 48.1743 82.4832 51.5905C82.483 52.8028 82.4168 54.0142 82.2848 55.2193L82.2208 55.8593L82.7648 56.1665C84.4897 57.1557 85.9717 58.5181 87.1021 60.154C88.2326 61.7899 88.9829 63.6579 89.2983 65.6212C89.6136 67.5845 89.486 69.5935 88.9247 71.5012C88.3635 73.4088 87.3828 75.1668 86.0544 76.6465C84.9773 74.4952 83.1885 72.7833 80.992 71.8017C82.336 70.1953 83.1296 67.3985 83.0144 64.9857C82.816 60.8769 80.0896 58.2401 76.0576 58.2401C72.0256 58.2401 69.2992 60.8641 69.1008 64.9153C68.9856 67.3281 69.7792 70.1249 71.1232 71.7313C69.9217 72.2525 68.8344 73.0049 67.9232 73.9457L69.2992 75.2833C70.4125 74.1197 71.8552 73.3247 73.4336 73.0049V71.1233C72.3776 70.9121 70.8736 68.0897 71.0208 65.0113C71.168 61.9329 73.0496 60.1601 76.0576 60.1601C79.0656 60.1601 80.9472 61.9713 81.0944 65.0113C81.2416 68.0513 79.7376 70.9121 78.6752 71.1233V73.0049C79.99 73.2921 81.2156 73.8941 82.2467 74.7591C83.2778 75.6241 84.0837 76.7264 84.5952 77.9713C83.5946 78.8051 82.4778 79.4886 81.28 80.0001L81.1008 80.0705C77.96 81.354 74.4469 81.3861 71.2832 80.1601C70.9824 80.0513 70.6432 79.9105 70.3616 79.7697C67.7151 78.5027 65.5591 76.3999 64.2264 73.7859C62.8938 71.1718 62.4585 68.1919 62.9878 65.3059C63.5171 62.4198 64.9816 59.7883 67.1551 57.8173C69.3287 55.8463 72.0905 54.6454 75.0144 54.4001L74.88 52.4801C71.7529 52.7311 68.7789 53.9388 66.3621 55.939C63.9453 57.9392 62.2029 60.635 61.3716 63.6601C60.5404 66.6851 60.6606 69.8927 61.716 72.847C62.7713 75.8014 64.7106 78.3592 67.2704 80.1729C61.6021 84.0061 54.9131 86.0484 48.0704 86.0353C47.6672 86.0353 47.2704 86.0353 46.88 86.0353L50.784 82.1313L49.4272 80.7745L43.168 87.0273L49.4272 93.2801L50.784 91.9233L46.816 87.9553C47.232 87.9553 47.648 87.9553 48.096 87.9553C55.6004 87.9611 62.9201 85.6279 69.0368 81.2801L69.5552 81.5361C69.9055 81.706 70.2644 81.8577 70.6304 81.9905C74.1772 83.3687 78.114 83.355 81.6512 81.9521L81.8368 81.8817C84.4387 80.8264 86.6994 79.0741 88.3702 76.8175C90.041 74.5609 91.0573 71.8873 91.3073 69.0906C91.5573 66.294 91.0314 63.4825 89.7874 60.9653C88.5434 58.4481 86.6295 56.3226 84.256 54.8225V54.7905Z" fill="#FF5F46"></path><path d="M32.9601 20.5824C33.5728 24.1343 35.4151 27.3577 38.1646 29.6884C40.9141 32.019 44.3957 33.3085 48.0001 33.3312C51.0809 33.3311 54.0892 32.396 56.6273 30.6496C57.2283 30.2403 57.8013 29.7913 58.3425 29.3056C58.4129 29.2416 58.4705 29.1712 58.5345 29.1072C58.7457 28.9152 58.9441 28.7104 59.1745 28.4992C59.4049 28.288 59.4497 28.2048 59.5777 28.0512C59.7057 27.8976 59.9233 27.648 60.0833 27.4112C60.2433 27.1744 60.3393 27.0848 60.4609 26.912C60.5825 26.7392 60.7681 26.4704 60.9153 26.272C61.0625 26.0736 61.1777 25.8432 61.2993 25.632L61.3761 25.4912C61.5937 25.0944 61.7985 24.6848 62.0161 24.2688C62.0161 24.1984 62.0737 24.128 62.1057 24.0576C62.2657 23.6864 62.4065 23.3088 62.5409 22.9184C62.5793 22.7904 62.6241 22.6624 62.6625 22.528C62.7521 22.2528 62.8289 21.9712 62.8929 21.6896C62.9569 21.408 63.0081 21.1968 63.0593 20.9536C63.0593 20.832 63.1105 20.7104 63.1297 20.5888C69.9089 23.8762 75.4203 29.2999 78.8161 36.0256L73.3825 34.4704L72.8513 36.3136L81.3505 38.752L83.7889 30.2528L81.9201 29.7216L80.4097 34.9824C76.7081 27.744 70.6808 21.9601 63.2961 18.56C63.2961 18.3872 63.2961 18.2208 63.2961 18.0416C63.2896 14.682 62.1764 11.4181 60.1285 8.75482C58.0807 6.09153 55.2123 4.17722 51.9671 3.308C48.7219 2.43877 45.2807 2.66307 42.1758 3.9462C39.0709 5.22932 36.4753 7.49978 34.7905 10.4064L36.4801 11.3664C37.9456 8.80682 40.2166 6.80401 42.9394 5.67009C45.6621 4.53618 48.6834 4.33487 51.5325 5.09754C54.3816 5.86022 56.8983 7.54403 58.6904 9.88652C60.4825 12.229 61.4493 15.0986 61.4401 18.048C61.4401 18.2784 61.4401 18.5088 61.4401 18.7392C61.4401 18.8864 61.4401 19.0272 61.4401 19.168C61.4401 19.5072 61.3697 19.84 61.3121 20.1728C61.3121 20.3008 61.2673 20.4224 61.2481 20.544C61.2033 20.768 61.1521 20.992 61.1009 21.184C61.0497 21.376 60.9729 21.664 60.9025 21.9008L60.7873 22.2592C60.6721 22.592 60.5505 22.8992 60.4097 23.2448L60.3329 23.4304C60.1665 23.8016 59.9809 24.1664 59.7825 24.5184L59.7313 24.6144C59.6225 24.8064 59.5073 24.9984 59.3857 25.184C59.2641 25.3696 59.2385 25.4016 59.1681 25.5104C59.0017 25.7472 58.8353 25.984 58.6561 26.208C58.4769 26.432 58.3937 26.5408 58.2529 26.7008L58.1249 26.8544C57.0474 24.7087 55.2612 23.0015 53.0689 22.0224C54.4129 20.416 55.2065 17.6192 55.0913 15.2064C54.7841 11.2128 52.0577 8.58877 48.0001 8.58877C43.9425 8.58877 41.2417 11.2128 41.0433 15.264C40.9601 17.6768 41.7473 20.48 43.0913 22.08C41.8885 22.599 40.8008 23.3517 39.8913 24.2944L41.2673 25.632C42.3901 24.4606 43.8476 23.6648 45.4401 23.3536V21.472C44.3777 21.2608 42.8801 18.4384 43.0209 15.36C43.1617 12.2816 45.0497 10.5088 48.0577 10.5088C51.0657 10.5088 52.9473 12.32 53.0945 15.36C53.2417 18.4 51.7377 21.2608 50.6817 21.472V23.3536C51.9941 23.6405 53.2174 24.2409 54.2473 25.1036C55.2771 25.9662 56.0827 27.0654 56.5953 28.3072C56.1028 28.7192 55.5833 29.0976 55.0401 29.44C53.0892 30.6417 50.8622 31.3216 48.5728 31.4145C46.2834 31.5073 44.0085 31.0099 41.9668 29.9701C39.9251 28.9303 38.185 27.3829 36.9137 25.4767C35.6424 23.5704 34.8826 21.3693 34.7073 19.0848L34.6049 17.7344L33.3633 18.2784C28.1198 20.5918 23.4972 24.1114 19.8721 28.5504L21.3633 29.76C24.5194 25.8978 28.476 22.7665 32.9601 20.5824Z" fill="#FF5F46"></path><path d="M13.882 81.7345L14.0676 81.8177C17.6411 83.3037 21.6469 83.3701 25.2676 82.0033C25.6516 81.8561 26.0164 81.7089 26.3684 81.5425C26.554 81.4529 26.7652 81.3505 27.0084 81.2289C30.7747 83.9187 35.0255 85.8551 39.5268 86.9313L39.9684 85.0625C35.9791 84.1065 32.1955 82.437 28.8004 80.1345C31.6937 78.0523 33.7726 75.0287 34.6811 71.5818C35.5895 68.1349 35.2708 64.4793 33.7796 61.2417C32.6448 58.8103 30.8898 56.7206 28.6912 55.1826C26.4926 53.6446 23.9279 52.7125 21.2548 52.4801L21.082 54.4001C23.5498 54.6153 25.909 55.5132 27.8954 56.9933C29.8818 58.4734 31.417 60.4772 32.3291 62.7803C33.2412 65.0835 33.4942 67.5951 33.0597 70.0339C32.6253 72.4726 31.5205 74.7424 29.8692 76.5889C28.7859 74.449 27.0012 72.7456 24.8132 71.7633C26.1572 70.1569 26.9508 67.3601 26.8292 64.9473C26.6372 60.8769 23.9044 58.2401 19.8788 58.2401C15.8532 58.2401 13.114 60.8641 12.922 64.9153C12.8068 67.3281 13.6004 70.1249 14.9444 71.7313C13.7429 72.2525 12.6556 73.0049 11.7444 73.9457L13.1204 75.2833C14.2423 74.1199 15.6944 73.329 17.2804 73.0177V71.1361C16.218 70.9249 14.7204 68.1025 14.8612 65.0241C15.002 61.9457 16.8708 60.1601 19.8788 60.1601C22.8868 60.1601 24.7684 61.9713 24.9156 65.0113C25.0628 68.0513 23.5588 70.9121 22.4964 71.1233V73.0049C23.81 73.2951 25.0341 73.8982 26.0648 74.7629C27.0954 75.6275 27.9022 76.7281 28.4164 77.9713C27.8384 78.4481 27.2219 78.8762 26.5732 79.2513C26.2916 79.4113 25.978 79.5777 25.5492 79.7825C25.242 79.9233 24.9092 80.0513 24.5956 80.1793C21.4961 81.3457 18.0728 81.3138 14.9956 80.0897L14.8164 80.0129C12.5087 79.0569 10.5153 77.473 9.06254 75.4411C7.60981 73.4091 6.75597 71.0105 6.598 68.5176C6.44003 66.0247 6.98426 63.5375 8.16887 61.3384C9.35349 59.1393 11.131 57.3165 13.2996 56.0769L13.8436 55.7633L13.7796 55.1233C13.6531 53.9264 13.5912 52.7236 13.594 51.5201C13.5843 45.5279 15.1467 39.638 18.1252 34.4385L19.6356 39.9105L21.4852 39.3985L19.1172 30.9185L10.586 33.2801L11.098 35.1297L16.3588 33.6833C13.2609 39.1466 11.6397 45.3227 11.6548 51.6033C11.6548 52.6721 11.6996 53.7409 11.7892 54.8033C9.42732 56.2842 7.51571 58.3832 6.26145 60.8729C5.00719 63.3626 4.4581 66.1481 4.67368 68.9275C4.88926 71.7069 5.86128 74.3744 7.48444 76.6409C9.1076 78.9074 11.32 80.6866 13.882 81.7857V81.7345Z" fill="#FF5F46"></path></svg> 