<?xml version="1.0" encoding="UTF-8"?> <svg xmlns="http://www.w3.org/2000/svg" width="96" height="96" viewBox="0 0 96 96" fill="none"><path d="M49.6007 55.7441H47.6807V86.7841H72.8967V84.8641H49.6007V55.7441Z" fill="#FF5F46"></path><path d="M73.2161 35.7758V31.1038C73.2161 25.2798 68.4801 20.5438 62.6561 20.5438H43.9681V9.21582H30.9121V17.0878H39.1681V15.1678H32.8321V11.1358H42.0481V34.6878H43.9681V22.4638H56.5761C53.8881 24.3838 52.0961 27.5198 52.0961 31.1038V48.0638H59.4561V37.6958H79.2321V51.0078H43.6481V52.9278H81.1521V35.7758H73.2161ZM71.2961 35.7758H57.5361V46.1438H54.0161V31.1038C54.0161 26.3678 57.8561 22.4638 62.6561 22.4638C67.3921 22.4638 71.2961 26.3038 71.2961 31.1038V35.7758Z" fill="#FF5F46"></path><path d="M16.8326 31.1039C16.8326 26.3679 20.6726 22.4639 25.4726 22.4639H39.2966V20.5439H25.4086C19.5846 20.5439 14.8486 25.2799 14.8486 31.1039V52.8639H38.4646V84.8639H15.2326V86.784H40.4486V50.9439H16.8326V31.1039Z" fill="#FF5F46"></path><path d="M74.1767 41.1519H64.5127V43.0719H74.1767V41.1519Z" fill="#FF5F46"></path><path d="M74.1767 45.5679H64.5127V47.4879H74.1767V45.5679Z" fill="#FF5F46"></path></svg> 