<svg width="908" height="726" viewBox="0 0 908 726" fill="none" xmlns="http://www.w3.org/2000/svg">
<path fill-rule="evenodd" clip-rule="evenodd" d="M698.332 612.25C696.234 607.961 695.258 605.764 694.1 603.707C663.358 548.127 632.688 492.477 601.692 437.036C598.545 431.492 598.943 428.179 603.211 423.437C652.11 369.112 700.755 314.578 749.473 260.079C751.173 258.196 752.728 256.139 753.379 252.756C739.129 256.278 724.879 259.765 710.665 263.356C651.567 278.245 592.469 293.099 533.444 308.162C527.946 309.557 525.451 308.058 522.702 303.699C489.175 250.42 455.43 197.246 421.722 144.071C419.986 141.282 418.105 138.597 414.416 136.296C411.704 150.487 408.919 164.679 406.279 178.87L378.176 329.293C377.164 334.732 375.753 340.102 375.283 345.576C374.777 350.737 372.028 352.654 367.073 354.119C297.451 374.9 227.9 395.891 158.314 416.882C155.276 417.789 152.274 418.974 149.019 421.798L320.598 486.654C318.5 488.223 317.126 489.443 315.607 490.42C280.018 512.317 244.356 534.11 208.912 556.112C204.644 558.727 201.281 559.11 196.507 557.053C154.01 538.887 111.332 521.034 68.799 502.937C49.6664 494.813 32.4868 484.039 19.1048 468.487C-11.1675 433.27 -5.19981 393.241 35.127 368.764C48.3282 360.744 63.3378 354.781 78.2388 350.144C146.451 329.014 214.916 308.65 283.309 288.183C289.06 286.474 291.736 284.033 292.785 278.141C301.899 227.93 311.375 177.824 320.851 127.683C325.951 100.904 328.663 73.3931 342.371 48.8806C347.651 39.3964 353.944 30.1562 361.467 22.2411C388.593 -6.42078 426.533 -7.53656 455.25 19.8003C464.943 29.0056 473.261 39.8845 480.495 51.0076C512.105 100.067 543.245 149.441 574.169 198.85C577.858 204.742 581.149 205.893 587.912 204.185C664.226 184.728 740.612 165.585 816.962 146.408C832.731 142.433 848.644 141.003 864.811 143.862C900.038 150.138 915.446 175.593 903.51 207.95C898.085 222.665 888.718 235.148 878.193 246.864C824.918 306.489 771.716 366.114 718.26 425.564C713.884 430.446 713.775 433.933 716.813 439.372C748.713 496.556 780.324 553.845 812.079 611.099C819.674 624.802 825.461 638.994 825.642 654.754C826.003 690.564 798.516 719.854 761.083 725.049C740.105 727.978 720.647 723.724 701.044 717.971C653.195 703.884 605.273 690.076 557.314 676.373C552.866 675.083 551.166 673.444 550.406 668.876C544.873 636.797 538.869 604.788 533.046 572.744C532.901 571.872 533.155 570.931 533.299 568.943L698.332 612.25Z" fill="#E25A1C" fill-opacity="0.12"/>
</svg>
