<?xml version="1.0" encoding="UTF-8"?> <svg xmlns="http://www.w3.org/2000/svg" width="96" height="96" viewBox="0 0 96 96" fill="none"><path fill-rule="evenodd" clip-rule="evenodd" d="M73.0175 60.1153C70.461 60.1153 68.5055 62.1022 68.5055 65.2289C68.5055 67.0664 69.5697 69.019 70.8889 70.2742L70.7053 71.8022L67.0049 73.9277C66.4213 74.2617 66.0479 74.9033 66.0479 75.5841V82.2721H64.1279V75.5841C64.1279 74.2169 64.8681 72.9385 66.051 72.2614L68.709 70.7346C67.5094 69.2521 66.5855 67.266 66.5855 65.2289C66.5855 61.226 69.2253 58.1953 73.0175 58.1953C76.8055 58.1953 79.4367 61.2284 79.4367 65.2289C79.4367 67.2661 78.5128 69.2521 77.3171 70.7342L79.9699 72.2606C81.1702 72.9397 81.9007 74.2208 81.9007 75.5841V82.4641H79.9807V75.5841C79.9807 74.9008 79.612 74.2632 79.0225 73.9306L79.0155 73.9266L75.3228 71.8018L75.1382 70.2757C76.4523 69.0198 77.5167 67.0666 77.5167 65.2289C77.5167 62.0999 75.5656 60.1153 73.0175 60.1153Z" fill="#FF5F46"></path><path fill-rule="evenodd" clip-rule="evenodd" d="M5.95801 48.0706C5.95801 27.3483 22.7591 10.5474 43.4876 10.5474C64.2098 10.5474 81.0108 27.3484 81.0108 48.0706H79.0908C79.0908 28.4088 63.1494 12.4674 43.4876 12.4674C23.8193 12.4674 7.87801 28.4089 7.87801 48.0706C7.87801 57.8984 11.8654 66.8027 18.3104 73.2477C23.3128 78.244 29.7932 81.7643 37.0364 83.0908V63.1042C37.0364 61.055 36.0981 59.1179 34.5331 57.7133C31.7975 55.2602 30.0796 51.7015 30.0796 47.7378C30.0796 41.8623 33.8593 36.8788 39.1182 35.073L40.39 34.6363V45.101C40.39 46.8372 41.8232 48.2336 43.5733 48.1798C45.2197 48.1269 46.5596 46.6748 46.5596 44.9282V34.6299L47.8314 35.0666C53.0901 36.8724 56.8764 41.8621 56.8764 47.7378C56.8764 51.7013 55.1586 55.2597 52.4302 57.7125L52.4283 57.7142C50.8578 59.1185 49.9196 61.0551 49.9196 63.1042V83.0986C51.8681 82.7441 53.7654 82.2288 55.5968 81.5676L56.2488 83.3735C53.9565 84.2011 51.5653 84.8121 49.1014 85.18L47.9996 85.3446V63.1042C47.9996 60.4563 49.2112 58.0159 51.147 56.2843C53.4872 54.1803 54.9564 51.134 54.9564 47.7378C54.9564 43.1948 52.3126 39.2656 48.4796 37.407V44.9282C48.4796 47.6099 46.4152 50.0104 43.6333 50.0989L43.6323 50.0989C40.8 50.1859 38.47 47.9215 38.47 45.101V37.4133C34.6382 39.2709 31.9996 43.1947 31.9996 47.7378C31.9996 51.1341 33.4689 54.1801 35.8149 56.2838C37.7441 58.0152 38.9564 60.4559 38.9564 63.1042V85.3397L37.8533 85.1734C29.7463 83.9515 22.4885 80.1346 16.9532 74.6058C10.163 67.8156 5.95801 58.4284 5.95801 48.0706Z" fill="#FF5F46"></path><path fill-rule="evenodd" clip-rule="evenodd" d="M37.2506 18.3613H49.6976L51.483 25.0862C52.3369 25.3851 53.1736 25.7287 53.9895 26.1275L60.0092 22.632L68.803 31.4403L65.3155 37.4509C65.7156 38.2629 66.0662 39.1038 66.3652 39.9662L73.0681 41.7444V53.6276L72.1717 53.6872C64.3912 54.2043 58.2457 60.6748 58.2457 68.5885C58.2457 76.8391 64.9327 83.5261 73.1833 83.5261C81.4339 83.5261 88.1209 76.8391 88.1209 68.5885C88.1209 62.6488 84.6529 57.5184 79.6293 55.1119L79.0841 54.8507V48.0701H81.0041V53.6538C86.3731 56.47 90.0409 62.0993 90.0409 68.5885C90.0409 77.8995 82.4942 85.4461 73.1833 85.4461C63.8723 85.4461 56.3257 77.8995 56.3257 68.5885C56.3257 59.9635 62.7944 52.8576 71.1481 51.8549V43.2215L64.8646 41.5545L64.7042 41.0543C64.3496 39.9474 63.9036 38.8786 63.373 37.8662L63.127 37.3969L66.4019 31.7528L59.6949 25.0347L54.0468 28.3145L53.5781 28.0703C52.562 27.541 51.4976 27.106 50.3882 26.7424L49.8931 26.5801L48.2209 20.2813H38.7288L37.0611 26.586L36.5579 26.7453C35.4598 27.093 34.3912 27.5387 33.3708 28.0703L32.9016 28.3147L27.266 25.0351L20.5536 31.753L23.8283 37.3969L23.5824 37.8662C23.0539 38.8744 22.6199 39.9366 22.2634 41.043L22.1028 41.5413L15.8009 43.2206V52.7205L22.1026 54.3936L22.2634 54.8925C22.6199 55.9988 23.0539 57.061 23.5824 58.0693L23.8283 58.5385L20.5537 64.1821L27.2657 70.8942L32.4444 67.8804L33.4101 69.5398L26.9536 73.2973L18.152 64.4957L21.6401 58.484C21.2416 57.672 20.8987 56.836 20.6031 55.982L13.8809 54.1973V41.7452L20.603 39.954C20.8985 39.0998 21.2416 38.2637 21.6401 37.4514L18.1522 31.44L26.9533 22.6316L32.9595 26.1269C33.7732 25.7277 34.6134 25.3777 35.473 25.0819L37.2506 18.3613Z" fill="#FF5F46"></path></svg> 