<?xml version="1.0" encoding="UTF-8"?> <svg xmlns="http://www.w3.org/2000/svg" width="96" height="96" viewBox="0 0 96 96" fill="none"><path d="M81.1326 16.0703H14.867C13.6233 16.072 12.4311 16.5668 11.5517 17.4462C10.6723 18.3256 10.1775 19.5178 10.1758 20.7615V30.0799H78.3678V28.1599H12.0958V20.7615C12.0958 20.0265 12.3877 19.3217 12.9074 18.802C13.4271 18.2823 14.132 17.9903 14.867 17.9903H81.1326C81.8675 17.9903 82.5724 18.2823 83.0921 18.802C83.6118 19.3217 83.9038 20.0265 83.9038 20.7615V75.2383C83.9038 75.9733 83.6118 76.6781 83.0921 77.1978C82.5724 77.7175 81.8675 78.0095 81.1326 78.0095H14.867C14.132 78.0095 13.4271 77.7175 12.9074 77.1978C12.3877 76.6781 12.0958 75.9733 12.0958 75.2383V37.2863H10.1758V75.2383C10.1775 76.482 10.6723 77.6742 11.5517 78.5536C12.4311 79.433 13.6233 79.9278 14.867 79.9295H81.1326C82.3762 79.9278 83.5685 79.433 84.4479 78.5536C85.3273 77.6742 85.8221 76.482 85.8238 75.2383V20.7615C85.8221 19.5178 85.3273 18.3256 84.4479 17.4462C83.5685 16.5668 82.3762 16.072 81.1326 16.0703Z" fill="#FF5F46"></path><path d="M16.3838 23.1552C16.3851 23.4473 16.4728 23.7325 16.6361 23.9748C16.7993 24.2171 17.0306 24.4056 17.3009 24.5165C17.5711 24.6274 17.8682 24.6558 18.1545 24.598C18.4409 24.5403 18.7037 24.3989 18.9098 24.1919C19.1159 23.9849 19.2561 23.7215 19.3126 23.4349C19.3692 23.1483 19.3395 22.8514 19.2274 22.5816C19.1154 22.3118 18.9259 22.0813 18.6829 21.9191C18.4399 21.757 18.1543 21.6704 17.8622 21.6704C17.6675 21.6704 17.4747 21.7089 17.295 21.7836C17.1152 21.8583 16.9519 21.9677 16.8145 22.1057C16.6772 22.2436 16.5684 22.4074 16.4945 22.5875C16.4206 22.7676 16.383 22.9605 16.3838 23.1552Z" fill="#FF5F46"></path><path d="M22.0859 23.1552C22.0859 23.4489 22.173 23.7359 22.3362 23.9801C22.4993 24.2243 22.7312 24.4146 23.0025 24.527C23.2738 24.6394 23.5724 24.6688 23.8604 24.6115C24.1484 24.5542 24.413 24.4128 24.6207 24.2051C24.8283 23.9975 24.9697 23.7329 25.027 23.4449C25.0843 23.1569 25.0549 22.8583 24.9425 22.587C24.8301 22.3157 24.6398 22.0838 24.3956 21.9206C24.1515 21.7575 23.8644 21.6704 23.5707 21.6704C23.1769 21.6704 22.7993 21.8268 22.5208 22.1053C22.2424 22.3838 22.0859 22.7614 22.0859 23.1552Z" fill="#FF5F46"></path><path d="M27.7949 23.1552C27.7949 23.4492 27.8822 23.7365 28.0456 23.9808C28.209 24.2251 28.4413 24.4154 28.713 24.5276C28.9847 24.6398 29.2836 24.6688 29.5718 24.611C29.8599 24.5532 30.1245 24.4111 30.3319 24.2029C30.5393 23.9946 30.6802 23.7294 30.7368 23.441C30.7933 23.1525 30.763 22.8538 30.6497 22.5826C30.5363 22.3114 30.345 22.0799 30.1 21.9175C29.855 21.7552 29.5673 21.6692 29.2733 21.6704C28.8806 21.6721 28.5046 21.8293 28.2275 22.1076C27.9505 22.3858 27.7949 22.7625 27.7949 23.1552Z" fill="#FF5F46"></path><path d="M78.6756 72.0515V37.2739H17.3252V72.0515H19.2452V61.7411H29.21V72.0515H31.13V61.7411H41.1012V72.0515H43.0212V61.7411H52.986V72.0515H54.906V61.7411H64.8708V72.0515H66.7908V61.7411H76.7556V72.0515H78.6756ZM76.7556 48.5443H66.7908V39.1939H76.7556V48.5443ZM43.0212 39.1939H52.986V48.5443H43.0212V39.1939ZM41.1012 48.5443H31.13V39.1939H41.1012V48.5443ZM54.906 39.1939H64.8708V48.5443H54.906V39.1939ZM29.21 39.1939V48.5443H19.2452V39.1939H29.21ZM19.2452 59.8211V50.4643H29.21V59.8211H19.2452ZM31.13 59.8211V50.4643H41.1012V59.8211H31.13ZM43.0212 59.8211V50.4643H52.986V59.8211H43.0212ZM54.906 59.8211V50.4643H64.8708V59.8211H54.906ZM66.7908 59.8211V50.4643H76.7556V59.8211H66.7908Z" fill="#FF5F46"></path></svg> 