<?xml version="1.0" encoding="UTF-8"?> <svg xmlns="http://www.w3.org/2000/svg" width="96" height="96" viewBox="0 0 96 96" fill="none"><path d="M38.695 20.3392V17.568C38.6927 16.8974 38.5568 16.2339 38.2953 15.6164C38.0338 14.9988 37.6518 14.4396 37.1718 13.9712C36.7274 13.5312 36.1996 13.1846 35.6192 12.9516C35.0389 12.7186 34.4179 12.6039 33.7926 12.6144C32.543 12.6428 31.3541 13.1588 30.4799 14.0522C29.6057 14.9455 29.1156 16.1453 29.1142 17.3952H31.0342C31.0341 16.6464 31.3276 15.9273 31.8517 15.3924C32.3758 14.8575 33.0887 14.5495 33.8374 14.5344C34.2098 14.5293 34.5794 14.5999 34.9237 14.7418C35.268 14.8837 35.58 15.094 35.8406 15.36C36.1368 15.6493 36.3725 15.9947 36.534 16.3759C36.6956 16.7572 36.7796 17.1668 36.7814 17.5808V24.6208C36.7801 25.3666 36.489 26.0826 35.9695 26.6176C35.45 27.1526 34.7428 27.4648 33.9974 27.488C33.6243 27.4886 33.255 27.4134 32.9118 27.2671C32.5686 27.1208 32.2586 26.9064 32.0006 26.6368C31.7036 26.3478 31.4669 26.0027 31.3042 25.6214C31.1416 25.2402 31.0564 24.8305 31.0534 24.416V20.3392H20.9734C19.7298 20.3409 18.5375 20.8357 17.6581 21.7151C16.7787 22.5945 16.2839 23.7868 16.2822 25.0304V78.72C16.2839 79.9637 16.7787 81.1559 17.6581 82.0353C18.5375 82.9147 19.7298 83.4095 20.9734 83.4112H75.0278C76.2715 83.4095 77.4637 82.9147 78.3431 82.0353C79.2225 81.1559 79.7173 79.9637 79.719 78.72V25.0304C79.7173 23.7868 79.2225 22.5945 78.3431 21.7151C77.4637 20.8357 76.2715 20.3409 75.0278 20.3392H69.3126V22.2592H75.0278C75.7628 22.2592 76.4677 22.5512 76.9874 23.0709C77.5071 23.5906 77.799 24.2954 77.799 25.0304V34.9952H18.2022V25.0304C18.2022 24.2954 18.4942 23.5906 19.0139 23.0709C19.5336 22.5512 20.2385 22.2592 20.9734 22.2592H29.1142V24.416C29.117 25.0872 29.2538 25.751 29.5164 26.3686C29.7791 26.9862 30.1624 27.5452 30.6438 28.0128C31.3166 28.6598 32.1649 29.0944 33.0829 29.2626C34.001 29.4308 34.9483 29.3251 35.8067 28.9587C36.6651 28.5922 37.3967 27.9813 37.9103 27.2019C38.4239 26.4226 38.6968 25.5094 38.695 24.576V22.2592H57.3062V24.576C57.3079 25.8429 57.8111 27.0577 58.7057 27.9547C59.6003 28.8517 60.8137 29.3581 62.0806 29.3632C63.3509 29.3632 64.5692 28.8591 65.4679 27.9615C66.3667 27.0639 66.8725 25.8462 66.8742 24.576V17.3952C66.8742 16.1222 66.3685 14.9013 65.4683 14.0011C64.5682 13.1009 63.3473 12.5952 62.0742 12.5952C60.8012 12.5952 59.5803 13.1009 58.6801 14.0011C57.7799 14.9013 57.2742 16.1222 57.2742 17.3952H59.1942C59.1942 16.6314 59.4977 15.8989 60.0378 15.3587C60.5779 14.8186 61.3104 14.5152 62.0742 14.5152C62.838 14.5152 63.5706 14.8186 64.1107 15.3587C64.6508 15.8989 64.9542 16.6314 64.9542 17.3952V24.576C64.9492 25.336 64.6446 26.0633 64.1066 26.6001C63.5686 27.1369 62.8406 27.4399 62.0806 27.4432C61.3207 27.4415 60.5924 27.1389 60.0551 26.6016C59.5177 26.0642 59.2151 25.3359 59.2134 24.576V20.3392H38.695ZM77.799 36.9152V78.72C77.7973 79.4545 77.5048 80.1583 76.9855 80.6777C76.4662 81.197 75.7623 81.4895 75.0278 81.4912H20.9734C20.2385 81.4912 19.5336 81.1992 19.0139 80.6796C18.4942 80.1599 18.2022 79.455 18.2022 78.72V36.9152H77.799Z" fill="#FF5F46"></path><path d="M37.5874 55.2577L36.2306 53.9009L29.1458 60.9857L26.4642 58.3105L25.1074 59.6737L29.1458 63.6993L37.5874 55.2577Z" fill="#FF5F46"></path><path d="M37.5874 42.9823L36.2306 41.6255L29.1458 48.7103L26.4642 46.0415L25.1074 47.3983L29.1458 51.4303L37.5874 42.9823Z" fill="#FF5F46"></path><path d="M71.1487 45.2285H44.5439V47.1485H71.1487V45.2285Z" fill="#FF5F46"></path><path d="M63.4687 57.4976H44.5439V59.4176H63.4687V57.4976Z" fill="#FF5F46"></path><path d="M37.5874 67.5267L36.2306 66.1699L29.1458 73.2611L26.4642 70.5859L25.1074 71.9427L29.1458 75.9747L37.5874 67.5267Z" fill="#FF5F46"></path><path d="M71.1487 69.7729H44.5439V71.6929H71.1487V69.7729Z" fill="#FF5F46"></path></svg> 