<svg width="955" height="764" viewBox="0 0 955 764" fill="none" xmlns="http://www.w3.org/2000/svg">
<path fill-rule="evenodd" clip-rule="evenodd" d="M734.49 643.951C732.283 639.44 731.256 637.129 730.039 634.965C697.705 576.507 665.447 517.976 632.846 459.665C629.537 453.834 629.955 450.349 634.444 445.362C685.874 388.224 737.038 330.866 788.279 273.545C790.066 271.565 791.702 269.401 792.387 265.843C777.399 269.548 762.411 273.215 747.461 276.992C685.304 292.652 623.146 308.275 561.064 324.118C555.282 325.585 552.658 324.008 549.766 319.424C514.503 263.386 479.011 207.459 443.558 151.531C441.732 148.597 439.754 145.773 435.874 143.353C433.021 158.279 430.092 173.205 427.315 188.132L397.758 346.343C396.692 352.064 395.209 357.711 394.714 363.469C394.182 368.897 391.291 370.914 386.079 372.454C312.852 394.312 239.7 416.389 166.511 438.467C163.316 439.421 160.158 440.668 156.735 443.638L337.198 511.852C334.991 513.502 333.546 514.785 331.948 515.812C294.516 538.843 257.009 561.765 219.729 584.906C215.24 587.656 211.703 588.06 206.681 585.896C161.984 566.789 117.097 548.012 72.3613 528.978C52.238 520.433 34.1689 509.101 20.094 492.744C-11.7457 455.704 -5.46904 413.602 36.9458 387.857C50.8305 379.422 66.6173 373.151 82.2898 368.273C154.034 346.049 226.044 324.632 297.978 303.104C304.026 301.307 306.841 298.74 307.945 292.542C317.531 239.732 327.497 187.031 337.464 134.294C342.827 106.129 345.681 77.1932 360.098 51.4115C365.652 41.4362 372.271 31.7176 380.183 23.3927C408.713 -6.75321 448.617 -7.92676 478.821 20.8255C489.016 30.5074 497.765 41.9497 505.373 53.6486C538.621 105.249 571.373 157.179 603.898 209.146C607.778 215.344 611.239 216.554 618.353 214.757C698.618 194.293 778.959 174.159 859.262 153.988C875.847 149.807 892.585 148.304 909.589 151.311C946.64 157.912 962.845 184.684 950.292 218.718C944.586 234.194 934.733 247.323 923.664 259.646C867.63 322.358 811.673 385.07 755.45 447.599C750.847 452.733 750.733 456.401 753.928 462.122C787.48 522.267 820.727 582.522 854.126 642.74C862.115 657.153 868.201 672.079 868.391 688.656C868.772 726.32 839.861 757.126 800.49 762.59C778.426 765.671 757.961 761.197 737.343 755.146C687.016 740.329 636.612 725.807 586.171 711.394C581.492 710.037 579.704 708.313 578.905 703.509C573.085 669.769 566.77 636.102 560.646 602.399C560.494 601.482 560.76 600.492 560.912 598.402L734.49 643.951" fill="#E25A1C" fill-opacity="0.12"/>
</svg>
