<?xml version="1.0" encoding="UTF-8"?> <svg xmlns="http://www.w3.org/2000/svg" width="74" height="74" viewBox="0 0 74 74" fill="none"><path d="M33.2398 72.432C36.8919 72.4382 40.5169 71.7265 43.9513 70.3289L43.4141 68.6247C37.4414 71.0674 30.9321 71.3048 24.8313 69.3025C18.7305 67.3001 13.3558 63.1622 9.48759 57.4896C5.61941 51.817 3.4591 44.905 3.32035 37.7572C3.1816 30.6094 5.07162 23.5978 8.71598 17.7407C12.3603 11.8835 17.5693 7.48557 23.5866 5.1855C29.6039 2.88542 36.1162 2.80291 42.178 4.94996C48.2398 7.097 53.5355 11.3618 57.2962 17.1252C61.0569 22.8885 63.0868 29.8504 63.0912 36.9999V43.3998L63.5532 43.6476C65.5183 44.7025 67.2053 46.3151 68.4478 48.3266C69.6903 50.3382 70.4456 52.6792 70.6392 55.1191C70.8327 57.5589 70.4579 60.0134 69.5517 62.2407C68.6454 64.468 67.239 66.3912 65.4709 67.8209V62.9863C65.4703 62.3504 65.3211 61.7259 65.0383 61.1754C64.7554 60.6249 64.3489 60.1677 63.8594 59.8498L61.6247 58.4054C62.7178 56.9453 63.3456 55.1159 63.4081 53.2081C63.4081 49.3585 61.1412 46.5605 58.0363 46.5605C54.9313 46.5605 52.6644 49.3525 52.6644 53.2081C52.7224 55.1169 53.3507 56.9479 54.4479 58.4054L52.2132 59.8498C51.7237 60.1677 51.3171 60.6249 51.0343 61.1754C50.7514 61.7259 50.6022 62.3504 50.6016 62.9863V67.5852C48.5731 65.8472 47.0644 63.4542 46.2769 60.7259C45.4895 57.9976 45.4608 55.0639 46.1948 52.3168C46.9287 49.5697 48.3904 47.14 50.3844 45.3522C52.3785 43.5645 54.81 42.5038 57.354 42.312L57.252 40.499C53.8397 40.7448 50.6218 42.3713 48.1924 45.0782C45.763 47.7851 44.2863 51.3894 44.0349 55.2257C43.7836 59.0619 44.7746 62.8709 46.8249 65.9493C48.8753 69.0276 51.8465 71.1673 55.1898 71.9733C58.5332 72.7793 62.0229 72.1971 65.0144 70.3342C68.0059 68.4713 70.2973 65.4536 71.4653 61.8383C72.6332 58.2231 72.599 54.2545 71.3688 50.6654C70.1387 47.0763 67.7957 44.1092 64.7726 42.312V36.9999C64.7736 29.9922 62.9279 23.1415 59.4686 17.3137C56.0094 11.4859 51.0919 6.94278 45.3379 4.25857C39.5839 1.57435 33.2517 0.869584 27.1417 2.23335C21.0317 3.59712 15.4183 6.9682 11.0111 11.9204C6.60384 16.8727 3.60063 23.1837 2.3811 30.0558C1.16157 36.9279 1.78048 44.0525 4.15958 50.529C6.53868 57.0054 10.5712 62.5429 15.7473 66.4416C20.9234 70.3402 27.0107 72.4248 33.2398 72.432V72.432ZM52.1756 68.7637V62.9863C52.1758 62.6694 52.2498 62.3582 52.3902 62.0836C52.5307 61.8089 52.7326 61.5805 52.976 61.421L56.0809 59.4146L56.2367 57.9703C55.0486 56.7331 54.3324 55.0264 54.2384 53.2081C54.2384 50.3617 55.7962 48.3735 57.9987 48.3735C60.2011 48.3735 61.759 50.3557 61.759 53.2081C61.665 55.0264 60.9488 56.7331 59.7606 57.9703L59.9164 59.4146L63.0214 61.4271C63.2709 61.5806 63.4799 61.8058 63.6271 62.0796C63.7743 62.3535 63.8544 62.6663 63.8594 62.9863V68.9389C62.045 69.9836 60.0314 70.5142 57.9935 70.4847C55.9555 70.4552 53.9547 69.8665 52.1648 68.7697L52.1756 68.7637Z" fill="#0B9ACE"></path><path d="M20.96 58.5022L22.5124 58.9856L23.3934 55.3717H41.1366V53.5587H22.1633L20.96 58.5022Z" fill="#0B9ACE"></path><path d="M34.5826 28.9745L38.8371 39.1152L39.8309 38.5834L41.2974 42.022L47.7437 38.6015L46.2986 35.1507L47.2065 34.6733L37.9239 12.5305L36.6669 13.1953L34.5182 8.01013L28.6306 11.1224L30.7793 16.3016L29.5223 16.9724L32.2781 23.5415L33.7768 22.7619L31.7087 17.8366L32.9711 17.1658L30.8223 11.9866L33.7178 10.4093L35.8665 15.5945L37.1235 14.9297L45.0577 33.8031L39.6053 36.6978L35.469 26.8412L34.8512 27.0164C32.1206 27.7498 29.6899 29.4985 27.9527 31.9794C26.2154 34.4603 25.2732 37.5282 25.2786 40.6864V43.0433H21.1154V40.6864C21.1241 36.576 22.3319 32.5824 24.5534 29.3189C25.0846 29.6058 25.667 29.7526 26.2562 29.748C27.1648 29.7534 28.0475 29.4085 28.7575 28.7708C29.4675 28.1331 29.9619 27.2411 30.1584 26.2432C30.3549 25.2453 30.2416 24.2018 29.8374 23.2864C29.4332 22.371 28.7625 21.6391 27.9369 21.2123C27.1114 20.7856 26.1808 20.6899 25.3001 20.9411C24.4195 21.1924 23.6419 21.7754 23.0969 22.5931C22.5518 23.4109 22.2722 24.414 22.3046 25.4354C22.337 26.4568 22.6794 27.435 23.2749 28.207V28.207C20.8437 31.7909 19.523 36.1721 19.5146 40.6804V48.011H16.5869V58.756H18.1985V49.824H21.11V44.8563H25.2732V49.7998H42.635V47.9868H26.8901V40.6864C26.8855 38.0641 27.6309 35.5096 29.0162 33.4005C30.4014 31.2914 32.3531 29.7396 34.5826 28.9745V28.9745ZM45.5949 37.7312L42.0441 39.6107L41.2921 37.7977L44.8375 35.9122L45.5949 37.7312ZM26.2562 22.6531C26.7208 22.6519 27.1752 22.8058 27.5619 23.0953C27.9487 23.3847 28.2504 23.7968 28.4289 24.2792C28.6074 24.7617 28.6546 25.2929 28.5647 25.8056C28.4747 26.3183 28.2515 26.7894 27.9235 27.1593C27.5954 27.5293 27.1771 27.7814 26.7216 27.8838C26.2661 27.9862 25.7938 27.9343 25.3645 27.7345C24.9353 27.5348 24.5683 27.1963 24.3101 26.7619C24.0519 26.3275 23.9141 25.8167 23.9141 25.2941C23.9141 24.5947 24.1607 23.9239 24.5998 23.4288C25.0389 22.9337 25.6346 22.6547 26.2562 22.6531V22.6531Z" fill="#0B9ACE"></path></svg> 